<svg data-v-fde0c5aa="" xmlns="http://www.w3.org/2000/svg" viewBox="0 0 300 300" class="font"><!----><defs data-v-fde0c5aa=""><!----></defs><rect data-v-fde0c5aa="" fill="#F8680C" x="0" y="0" width="300px" height="300px" class="logo-background-square"></rect><defs data-v-fde0c5aa=""><!----></defs><g data-v-fde0c5aa="" id="bb02a9ad-04f8-4009-81e6-0bc3e9f16dd9" fill="#E7E7E6" transform="matrix(2.625611619479422,0,0,2.625611619479422,37.79448615199804,127.83983778135499)"><path d="M0.84 12.29L0.84 2.69L3.96 2.69L3.96 2.69Q5.78 2.69 6.80 3.88L6.80 3.88L6.80 3.88Q7.81 5.07 7.81 7.35L7.81 7.35L7.81 7.35Q7.81 9.77 6.80 11.03L6.80 11.03L6.80 11.03Q5.80 12.29 3.96 12.29L3.96 12.29L0.84 12.29ZM2.63 10.70L3.79 10.70L3.79 10.70Q4.82 10.70 5.39 9.93L5.39 9.93L5.39 9.93Q5.96 9.17 5.96 7.70L5.96 7.70L5.96 7L5.96 7Q5.96 5.67 5.39 4.98L5.39 4.98L5.39 4.98Q4.82 4.28 3.79 4.28L3.79 4.28L2.63 4.28L2.63 10.70ZM9.06 12.29L9.06 4.93L10.46 4.93L10.65 6.01L10.74 6.01L10.74 6.01Q10.92 5.45 11.21 5.10L11.21 5.10L11.21 5.10Q11.51 4.76 12.01 4.76L12.01 4.76L12.01 4.76Q12.28 4.76 12.47 4.81L12.47 4.81L12.47 4.81Q12.67 4.86 12.71 4.87L12.71 4.87L12.71 6.50L12.11 6.50L12.11 6.50Q11.49 6.50 11.12 6.89L11.12 6.89L11.12 6.89Q10.74 7.28 10.74 8.19L10.74 8.19L10.74 12.29L9.06 12.29ZM15.48 12.46L15.48 12.46Q14.57 12.46 14.05 11.89L14.05 11.89L14.05 11.89Q13.52 11.33 13.52 10.09L13.52 10.09L13.52 4.93L15.20 4.93L15.20 9.63L15.20 9.63Q15.20 10.33 15.44 10.63L15.44 10.63L15.44 10.63Q15.68 10.93 16.17 10.93L16.17 10.93L16.17 10.93Q16.66 10.93 16.99 10.52L16.99 10.52L16.99 10.52Q17.32 10.11 17.32 9.49L17.32 9.49L17.32 4.93L19.00 4.93L19.00 12.29L17.60 12.29L17.43 11.38L17.35 11.38L17.35 11.38Q17.02 11.86 16.56 12.16L16.56 12.16L16.56 12.16Q16.10 12.46 15.48 12.46L15.48 12.46ZM20.54 12.29L20.54 4.93L21.94 4.93L22.11 5.84L22.19 5.84L22.19 5.84Q22.51 5.36 22.97 5.06L22.97 5.06L22.97 5.06Q23.44 4.76 24.05 4.76L24.05 4.76L24.05 4.76Q24.96 4.76 25.49 5.33L25.49 5.33L25.49 5.33Q26.01 5.89 26.01 7.13L26.01 7.13L26.01 12.29L24.33 12.29L24.33 7.59L24.33 7.59Q24.33 6.90 24.09 6.59L24.09 6.59L24.09 6.59Q23.84 6.29 23.37 6.29L23.37 6.29L23.37 6.29Q22.88 6.29 22.55 6.71L22.55 6.71L22.55 6.71Q22.22 7.14 22.22 7.76L22.22 7.76L22.22 12.29L20.54 12.29ZM27.54 12.29L27.54 2.17L29.22 2.17L29.22 7.85L31.28 4.93L33.07 4.93L30.88 7.92L33.18 12.29L31.32 12.29L29.83 9.24L29.22 10.00L29.22 12.29L27.54 12.29ZM37.20 12.29L37.20 2.69L43.32 2.69L43.32 4.28L38.99 4.28L38.99 6.58L42.70 6.58L42.70 8.18L38.99 8.18L38.99 10.70L43.40 10.70L43.40 12.29L37.20 12.29ZM44.77 12.29L44.77 2.17L46.45 2.17L46.45 12.29L44.77 12.29ZM50.53 12.46L50.53 12.46Q49.08 12.46 48.36 11.52L48.36 11.52L48.36 11.52Q47.64 10.57 47.64 8.61L47.64 8.61L47.64 8.61Q47.64 4.76 50.47 4.76L50.47 4.76L50.47 4.76Q51.81 4.76 52.47 5.70L52.47 5.70L52.47 5.70Q53.13 6.64 53.13 8.61L53.13 8.61L53.13 9.03L49.39 9.03L49.39 9.03Q49.41 10.07 49.66 10.58L49.66 10.58L49.66 10.58Q49.92 11.09 50.53 11.09L50.53 11.09L50.53 11.09Q50.96 11.09 51.21 10.72L51.21 10.72L51.21 10.72Q51.46 10.35 51.46 9.69L51.46 9.69L53.13 9.69L53.13 9.69Q53.13 11.06 52.42 11.76L52.42 11.76L52.42 11.76Q51.70 12.46 50.53 12.46L50.53 12.46ZM49.41 7.81L51.37 7.81L51.37 7.81Q51.37 6.13 50.47 6.13L50.47 6.13L50.47 6.13Q49.95 6.13 49.70 6.56L49.70 6.56L49.70 6.56Q49.45 6.99 49.41 7.81L49.41 7.81ZM54.36 14.71L54.36 4.93L55.76 4.93L55.93 5.84L56 5.84L56 5.84Q56.27 5.31 56.70 5.03L56.70 5.03L56.70 5.03Q57.13 4.76 57.67 4.76L57.67 4.76L57.67 4.76Q58.79 4.76 59.41 5.72L59.41 5.72L59.41 5.72Q60.03 6.68 60.03 8.62L60.03 8.62L60.03 8.62Q60.03 10.54 59.41 11.50L59.41 11.50L59.41 11.50Q58.79 12.46 57.75 12.46L57.75 12.46L57.75 12.46Q57.19 12.46 56.75 12.21L56.75 12.21L56.75 12.21Q56.31 11.97 56.11 11.54L56.11 11.54L56.04 11.54L56.04 14.71L54.36 14.71ZM57.16 10.93L57.16 10.93Q57.75 10.93 58.02 10.42L58.02 10.42L58.02 10.42Q58.28 9.91 58.28 8.88L58.28 8.88L58.28 8.34L58.28 8.34Q58.28 7.31 58.02 6.80L58.02 6.80L58.02 6.80Q57.75 6.29 57.16 6.29L57.16 6.29L57.16 6.29Q56.57 6.29 56.31 6.80L56.31 6.80L56.31 6.80Q56.04 7.31 56.04 8.34L56.04 8.34L56.04 8.85L56.04 8.85Q56.04 9.88 56.31 10.41L56.31 10.41L56.31 10.41Q56.57 10.93 57.16 10.93L57.16 10.93ZM61.38 12.29L61.38 2.17L63.06 2.17L63.06 5.71L63.11 5.71L63.11 5.71Q63.39 5.31 63.84 5.03L63.84 5.03L63.84 5.03Q64.29 4.76 64.89 4.76L64.89 4.76L64.89 4.76Q65.80 4.76 66.33 5.33L66.33 5.33L66.33 5.33Q66.85 5.89 66.85 7.13L66.85 7.13L66.85 12.29L65.17 12.29L65.17 7.59L65.17 7.59Q65.17 6.90 64.92 6.59L64.92 6.59L64.92 6.59Q64.68 6.29 64.20 6.29L64.20 6.29L64.20 6.29Q63.71 6.29 63.39 6.71L63.39 6.71L63.39 6.71Q63.06 7.14 63.06 7.76L63.06 7.76L63.06 12.29L61.38 12.29ZM69.66 12.46L69.66 12.46Q68.98 12.46 68.40 11.99L68.40 11.99L68.40 11.99Q67.82 11.52 67.82 10.39L67.82 10.39L67.82 10.39Q67.82 8.99 68.77 8.40L68.77 8.40L68.77 8.40Q69.72 7.81 71.47 7.81L71.47 7.81L71.47 7.04L71.47 7.04Q71.47 6.61 71.31 6.37L71.31 6.37L71.31 6.37Q71.15 6.13 70.70 6.13L70.70 6.13L70.70 6.13Q70.24 6.13 70.03 6.36L70.03 6.36L70.03 6.36Q69.82 6.59 69.82 6.90L69.82 6.90L69.82 7.11L68.18 7.11L68.18 7.11Q68.17 7.03 68.17 6.80L68.17 6.80L68.17 6.80Q68.17 5.88 68.84 5.32L68.84 5.32L68.84 5.32Q69.52 4.76 70.66 4.76L70.66 4.76L70.66 4.76Q71.92 4.76 72.54 5.32L72.54 5.32L72.54 5.32Q73.16 5.88 73.16 6.93L73.16 6.93L73.16 10.56L73.16 10.56Q73.16 10.81 73.28 10.93L73.28 10.93L73.28 10.93Q73.39 11.05 73.56 11.05L73.56 11.05L73.89 11.05L73.89 12.24L73.89 12.24Q73.47 12.46 72.90 12.46L72.90 12.46L72.90 12.46Q72.41 12.46 72.06 12.20L72.06 12.20L72.06 12.20Q71.72 11.94 71.60 11.49L71.60 11.49L71.53 11.49L71.53 11.49Q71.18 11.98 70.76 12.22L70.76 12.22L70.76 12.22Q70.35 12.46 69.66 12.46L69.66 12.46ZM70.36 11.06L70.36 11.06Q70.92 11.06 71.20 10.61L71.20 10.61L71.20 10.61Q71.47 10.16 71.47 9.45L71.47 9.45L71.47 9.03L71.47 9.03Q70.62 9.03 70.08 9.30L70.08 9.30L70.08 9.30Q69.54 9.58 69.54 10.23L69.54 10.23L69.54 10.23Q69.54 10.63 69.74 10.84L69.74 10.84L69.74 10.84Q69.94 11.06 70.36 11.06L70.36 11.06ZM74.77 12.29L74.77 4.93L76.17 4.93L76.34 5.84L76.43 5.84L76.43 5.84Q76.75 5.36 77.21 5.06L77.21 5.06L77.21 5.06Q77.67 4.76 78.29 4.76L78.29 4.76L78.29 4.76Q79.20 4.76 79.72 5.33L79.72 5.33L79.72 5.33Q80.25 5.89 80.25 7.13L80.25 7.13L80.25 12.29L78.57 12.29L78.57 7.59L78.57 7.59Q78.57 6.90 78.32 6.59L78.32 6.59L78.32 6.59Q78.08 6.29 77.60 6.29L77.60 6.29L77.60 6.29Q77.11 6.29 76.78 6.71L76.78 6.71L76.78 6.71Q76.45 7.14 76.45 7.76L76.45 7.76L76.45 12.29L74.77 12.29ZM83.62 12.46L83.62 12.46Q82.70 12.46 82.29 11.89L82.29 11.89L82.29 11.89Q81.89 11.33 81.89 10.49L81.89 10.49L81.89 6.34L81.14 6.34L81.14 4.93L81.89 4.93L82.14 2.86L83.57 2.86L83.57 4.93L84.63 4.93L84.63 6.34L83.57 6.34L83.57 10.44L83.57 10.44Q83.57 10.74 83.72 10.89L83.72 10.89L83.72 10.89Q83.87 11.05 84.15 11.05L84.15 11.05L84.63 11.05L84.63 12.29L84.63 12.29Q84.45 12.36 84.15 12.41L84.15 12.41L84.15 12.41Q83.86 12.46 83.62 12.46L83.62 12.46Z"></path></g><!----><!----></svg>